<svg xmlns="http://www.w3.org/2000/svg" version="1.1" xmlns:xlink="http://www.w3.org/1999/xlink" xmlns:svgjs="http://svgjs.dev/svgjs" width="1000" height="133" viewBox="0 0 1000 133"><g transform="matrix(1,0,0,1,-0.6060606060606233,0.14208585899697823)"><svg viewBox="0 0 396 53" data-background-color="#0b022d" preserveAspectRatio="xMidYMid meet" height="133" width="1000" xmlns="http://www.w3.org/2000/svg" xmlns:xlink="http://www.w3.org/1999/xlink"><g id="tight-bounds" transform="matrix(1,0,0,1,0.2400000000000091,-0.056496022137793034)"><svg viewBox="0 0 395.52 53.11311670279072" height="53.11311670279072" width="395.52"><g><svg viewBox="0 0 470.16557424064473 63.13703229742612" height="53.11311670279072" width="395.52"><g transform="matrix(1,0,0,1,0,8.725885071496666)"><svg viewBox="0 0 395.52 45.685262154432785" height="45.685262154432785" width="395.52"><g><svg viewBox="0 0 395.52 45.685262154432785" height="45.685262154432785" width="395.52"><g><svg viewBox="0 0 395.52 45.685262154432785" height="45.685262154432785" width="395.52"><g transform="matrix(1,0,0,1,0,0)"><svg width="395.52" viewBox="1.399999976158142 -36 314.67999267578125 36.349998474121094" height="45.685262154432785" data-palette-color="#f7fff7"><path d="M16.35 0.35Q10 0.35 5.88-2.63 1.75-5.6 1.4-11.35L1.4-11.35 13.2-11.35Q13.45-8.3 15.9-8.3L15.9-8.3Q16.8-8.3 17.43-8.72 18.05-9.15 18.05-10.05L18.05-10.05Q18.05-11.3 16.7-12.08 15.35-12.85 12.5-13.85L12.5-13.85Q9.1-15.05 6.88-16.2 4.65-17.35 3.05-19.55 1.45-21.75 1.5-25.2L1.5-25.2Q1.5-28.65 3.28-31.08 5.05-33.5 8.13-34.75 11.2-36 15.05-36L15.05-36Q21.55-36 25.38-33 29.2-30 29.4-24.55L29.4-24.55 17.45-24.55Q17.4-26.05 16.7-26.7 16-27.35 15-27.35L15-27.35Q14.3-27.35 13.85-26.88 13.4-26.4 13.4-25.55L13.4-25.55Q13.4-24.35 14.73-23.58 16.05-22.8 18.95-21.7L18.95-21.7Q22.3-20.45 24.48-19.3 26.65-18.15 28.25-16.1 29.85-14.05 29.85-10.95L29.85-10.95Q29.85-7.7 28.25-5.13 26.65-2.55 23.6-1.1 20.55 0.35 16.35 0.35L16.35 0.35ZM33.55-35.4L44.6-35.4 44.6-15.45Q44.6-13 45.67-11.58 46.75-10.15 49.15-10.15L49.15-10.15Q51.55-10.15 52.7-11.58 53.85-13 53.85-15.45L53.85-15.45 53.85-35.4 64.9-35.4 64.9-15.45Q64.9-10.4 62.8-6.83 60.7-3.25 57.05-1.45 53.4 0.35 48.9 0.35L48.9 0.35Q44.4 0.35 40.92-1.45 37.45-3.25 35.5-6.8 33.55-10.35 33.55-15.45L33.55-15.45 33.55-35.4ZM98.65-23.25Q98.65-19.9 97.1-17.18 95.55-14.45 92.52-12.85 89.5-11.25 85.2-11.25L85.2-11.25 80.8-11.25 80.8 0 69.7 0 69.7-35.4 85.2-35.4Q91.7-35.4 95.17-32.1 98.65-28.8 98.65-23.25L98.65-23.25ZM83.95-20Q87.4-20 87.4-23.25L87.4-23.25Q87.4-26.5 83.95-26.5L83.95-26.5 80.8-26.5 80.8-20 83.95-20ZM125.74-26.55L113.24-26.55 113.24-22.2 124.24-22.2 124.24-13.85 113.24-13.85 113.24-8.85 125.74-8.85 125.74 0 102.14 0 102.14-35.4 125.74-35.4 125.74-26.55ZM159.94 0L147.74 0 141.09-12.7 141.04-12.7 141.04 0 129.94 0 129.94-35.4 146.44-35.4Q150.74-35.4 153.79-33.88 156.84-32.35 158.37-29.73 159.89-27.1 159.89-23.8L159.89-23.8Q159.89-20.25 157.92-17.5 155.94-14.75 152.24-13.55L152.24-13.55 159.94 0ZM141.04-26.1L141.04-20.1 145.44-20.1Q147.04-20.1 147.84-20.83 148.64-21.55 148.64-23.1L148.64-23.1Q148.64-24.5 147.81-25.3 146.99-26.1 145.44-26.1L145.44-26.1 141.04-26.1ZM197.39-35.4L197.39 0 186.29 0 174.54-17.8 174.54 0 163.44 0 163.44-35.4 174.54-35.4 186.29-17.3 186.29-35.4 197.39-35.4ZM219.63 0.35Q214.63 0.35 210.46-2 206.28-4.35 203.83-8.5 201.38-12.65 201.38-17.85L201.38-17.85Q201.38-23.05 203.83-27.2 206.28-31.35 210.46-33.68 214.63-36 219.63-36L219.63-36Q224.63-36 228.78-33.68 232.94-31.35 235.36-27.2 237.78-23.05 237.78-17.85L237.78-17.85Q237.78-12.65 235.36-8.5 232.94-4.35 228.76-2 224.58 0.35 219.63 0.35L219.63 0.35ZM219.63-10Q222.94-10 224.73-12.13 226.53-14.25 226.53-17.85L226.53-17.85Q226.53-21.5 224.73-23.63 222.94-25.75 219.63-25.75L219.63-25.75Q216.28-25.75 214.48-23.63 212.69-21.5 212.69-17.85L212.69-17.85Q212.69-14.25 214.48-12.13 216.28-10 219.63-10L219.63-10ZM265.63-35.4L277.43-35.4 265.53 0 251.18 0 239.28-35.4 251.08-35.4 258.38-11.05 265.63-35.4ZM304.38 0L302.63-5.35 290.83-5.35 289.08 0 277.43 0 290.38-35.4 303.18-35.4 316.08 0 304.38 0ZM293.53-13.7L299.93-13.7 296.73-23.55 293.53-13.7Z" opacity="1" transform="matrix(1,0,0,1,0,0)" fill="#f7fff7" class="undefined-text-0" data-fill-palette-color="primary" id="text-0"></path></svg></g></svg></g></svg></g></svg></g><g transform="matrix(1,0,0,1,406.30519394836983,0)"><svg viewBox="0 0 63.860380292274876 63.13703229742612" height="63.13703229742612" width="63.860380292274876"><g><svg xmlns="http://www.w3.org/2000/svg" xmlns:xlink="http://www.w3.org/1999/xlink" version="1.1" x="0" y="0" viewBox="4.999999523162842 5.509712219238281 90 88.9805679321289" style="enable-background:new 0 0 100 100;" xml:space="preserve" height="63.13703229742612" width="63.860380292274876" class="icon-icon-0" data-fill-palette-color="accent" id="icon-0"><path d="M33.227 7.846c-15.285 13.576-12.687 26.383-12.687 26.383s-4.684-6.955-1.807-16.698C19.967 13.351 33.227 7.846 33.227 7.846z" fill="#ee7ddc" data-fill-palette-color="accent"></path><path d="M94.999 49.121C58.833-4.995 24.902 23.699 24.902 23.699S40.279-2.262 67.42 7.846C95.498 18.304 94.999 49.121 94.999 49.121z" fill="#ee7ddc" data-fill-palette-color="accent"></path><path d="M67.42 90.396C95 30.951 35.432 19.338 35.432 19.338s39.322-5.2 56.167 46.88C93.708 72.74 67.42 90.396 67.42 90.396z" fill="#ee7ddc" data-fill-palette-color="accent"></path><path d="M50.324 93.797c40.036-40.071-4.362-70.098-4.362-70.098s31.966 32.848-12.735 66.697C33.227 90.396 47.616 96.507 50.324 93.797z" fill="#ee7ddc" data-fill-palette-color="accent"></path><path d="M20.216 82.09c41.312-10.845 30.108-47.86 30.108-47.861s0.712 25.668-37.147 39.713C13.177 73.942 18.098 82.646 20.216 82.09z" fill="#ee7ddc" data-fill-palette-color="accent"></path><path d="M9.049 66.218c28.321-2.441 36.913-21.458 36.913-21.458S32.609 59.207 6.507 57.837C6.507 57.837 6.867 66.406 9.049 66.218z" fill="#ee7ddc" data-fill-palette-color="accent"></path><path d="M6.507 40.406c14.376 7.853 28.925 8.716 28.925 8.715s-16.745 8.194-29.784 0C3.794 47.956 6.507 40.406 6.507 40.406z" fill="#ee7ddc" data-fill-palette-color="accent"></path><path d="M13.177 24.301c3.73 14.877 11.724 20.459 11.725 20.459S14.71 42.616 9.049 32.025C8.017 30.094 13.177 24.301 13.177 24.301z" fill="#ee7ddc" data-fill-palette-color="accent"></path><circle cx="35.4318924" cy="34.2294884" r="12" fill="#ee7ddc" data-fill-palette-color="accent"></circle></svg></g></svg></g></svg></g><defs></defs></svg><rect width="395.52" height="53.11311670279072" fill="none" stroke="none" visibility="hidden"></rect></g></svg></g></svg>